<?xml version="1.0" encoding="UTF-8" standalone="no"?>
<!DOCTYPE svg PUBLIC "-//W3C//DTD SVG 1.1//EN" "http://www.w3.org/Graphics/SVG/1.1/DTD/svg11.dtd">
<svg width="100%" height="100%" viewBox="0 0 300 300" version="1.1" xmlns="http://www.w3.org/2000/svg" xmlns:xlink="http://www.w3.org/1999/xlink" xml:space="preserve" xmlns:serif="http://www.serif.com/" style="fill-rule:evenodd;clip-rule:evenodd;stroke-linecap:round;stroke-linejoin:round;stroke-miterlimit:1.5;">
    <g transform="matrix(0.277778,-5.36703e-06,-5.36703e-06,0.284859,-1.77494,-5.86665)">
        <g>
            <g transform="matrix(1,2.53535e-05,2.61016e-05,0.985665,-0.807898,614.62)">
                <path d="M547.209,65.125L546.387,465.8" style="fill:none;stroke:rgb(89,101,121);stroke-width:17.9px;"/>
            </g>
            <g transform="matrix(1,2.53535e-05,2.61016e-05,0.985665,-450.811,439.087)">
                <path d="M547.209,20.605L547.205,643.878" style="fill:none;stroke:rgb(89,101,121);stroke-width:17.9px;"/>
            </g>
            <g transform="matrix(1,2.53535e-05,2.61016e-05,0.985665,-450.819,0.273231)">
                <path d="M547.209,20.605L547.208,109.644" style="fill:none;stroke:rgb(89,101,121);stroke-width:17.9px;"/>
            </g>
            <g transform="matrix(1,2.53535e-05,2.61016e-05,0.985665,-315.817,131.92)">
                <path d="M547.21,-112.953L547.208,109.644" style="fill:none;stroke:rgb(89,101,121);stroke-width:17.9px;"/>
            </g>
            <g transform="matrix(1,2.53535e-05,2.61016e-05,0.985665,-315.817,131.92)">
                <path d="M547.21,-112.953L547.208,109.644" style="fill:none;stroke:rgb(89,101,121);stroke-width:17.9px;"/>
            </g>
            <g transform="matrix(1,2.53535e-05,2.61016e-05,0.985665,-315.804,790.14)">
                <path d="M547.21,-112.953L547.207,287.722" style="fill:none;stroke:rgb(89,101,121);stroke-width:17.9px;"/>
            </g>
            <g transform="matrix(1,2.53535e-05,2.61016e-05,0.985665,-315.804,790.14)">
                <path d="M547.21,-112.953L547.207,287.722" style="fill:none;stroke:rgb(89,101,121);stroke-width:17.9px;"/>
            </g>
            <g transform="matrix(1,2.53535e-05,2.61016e-05,0.985665,314.195,790.152)">
                <path d="M547.21,-112.953L547.207,287.722" style="fill:none;stroke:rgb(89,101,121);stroke-width:17.9px;"/>
            </g>
            <g transform="matrix(1,2.53535e-05,2.61016e-05,0.985665,314.183,131.932)">
                <path d="M547.21,-112.953L547.208,109.644" style="fill:none;stroke:rgb(89,101,121);stroke-width:17.9px;"/>
            </g>
            <g transform="matrix(1,2.53535e-05,2.61016e-05,0.985665,-89.9886,614.619)">
                <path d="M547.208,154.164L546.387,465.8" style="fill:none;stroke:rgb(89,101,121);stroke-width:17.9px;"/>
            </g>
            <g transform="matrix(1,2.53535e-05,2.61016e-05,0.985665,-90.8197,0.279542)">
                <path d="M547.209,20.605L548.025,465.8" style="fill:none;stroke:rgb(89,101,121);stroke-width:17.9px;"/>
            </g>
            <g transform="matrix(1,2.53535e-05,2.61016e-05,0.985665,88.3609,0.283154)">
                <path d="M458.848,20.606L458.845,376.762" style="fill:none;stroke:rgb(89,101,121);stroke-width:17.9px;"/>
            </g>
            <g transform="matrix(1,2.53535e-05,2.61016e-05,0.985665,-90.8197,0.279542)">
                <path d="M547.209,20.605L548.025,465.8" style="fill:none;stroke:rgb(89,101,121);stroke-width:17.9px;"/>
            </g>
            <g transform="matrix(3.6,6.78276e-05,6.78276e-05,3.51051,6.38679,-154.93)">
                <path d="M0,50L125,175" style="fill:none;stroke:rgb(89,101,121);stroke-width:5px;"/>
            </g>
            <g transform="matrix(1,2.53535e-05,2.61016e-05,0.985665,-89.9886,614.619)">
                <path d="M547.208,154.164L636.389,65.124" style="fill:none;stroke:rgb(89,101,121);stroke-width:17.9px;"/>
            </g>
            <g transform="matrix(1,2.53535e-05,2.61016e-05,0.985665,-629.992,439.083)">
                <path d="M726.39,20.604L636.39,-68.434" style="fill:none;stroke:rgb(89,101,121);stroke-width:17.9px;"/>
            </g>
            <g transform="matrix(1,2.53535e-05,2.61016e-05,0.985665,-224.992,439.091)">
                <path d="M321.387,376.763L771.39,-68.435" style="fill:none;stroke:rgb(89,101,121);stroke-width:17.9px;"/>
            </g>
            <g transform="matrix(1,2.53535e-05,2.61016e-05,0.985665,-449.991,482.968)">
                <path d="M456.391,-112.953L456.386,599.36" style="fill:none;stroke:rgb(89,101,121);stroke-width:17.9px;"/>
            </g>
        </g>
        <g>
            <g transform="matrix(3.6,6.78276e-05,6.78276e-05,3.51051,6.39018,20.595)">
                <path d="M50,200L50,100L0,50" style="fill:none;stroke:rgb(89,101,121);stroke-width:1.25px;"/>
            </g>
            <g transform="matrix(3.6,6.78276e-05,6.78276e-05,3.51051,6.39018,20.595)">
                <path d="M100,300L100,187.5L150,137.5" style="fill:none;stroke:rgb(89,101,121);stroke-width:1.25px;"/>
            </g>
            <g transform="matrix(3.6,6.78276e-05,6.78276e-05,3.51051,186.393,196.124)">
                <path d="M50,50L50,-50" style="fill:none;stroke:rgb(89,101,121);stroke-width:1.25px;"/>
            </g>
        </g>
        <g transform="matrix(-0.996945,-3.38813e-21,3.37778e-21,1,1091.94,0.0203328)">
            <g transform="matrix(1,2.53535e-05,2.61016e-05,0.985665,-0.807898,614.62)">
                <path d="M547.209,65.125L546.387,465.8" style="fill:none;stroke:rgb(89,101,121);stroke-width:17.9px;"/>
            </g>
            <g transform="matrix(1,2.53535e-05,2.61016e-05,0.985665,-450.811,439.087)">
                <path d="M547.209,20.605L547.205,643.878" style="fill:none;stroke:rgb(89,101,121);stroke-width:17.9px;"/>
            </g>
            <g transform="matrix(1,2.53535e-05,2.61016e-05,0.985665,-450.819,0.273231)">
                <path d="M547.209,20.605L547.208,109.644" style="fill:none;stroke:rgb(89,101,121);stroke-width:17.9px;"/>
            </g>
            <g transform="matrix(1,2.53535e-05,2.61016e-05,0.985665,-89.9886,614.619)">
                <path d="M547.208,154.164L546.387,465.8" style="fill:none;stroke:rgb(89,101,121);stroke-width:17.9px;"/>
            </g>
            <g transform="matrix(1,2.53535e-05,2.61016e-05,0.985665,-90.8197,0.279542)">
                <path d="M547.209,20.605L548.025,465.8" style="fill:none;stroke:rgb(89,101,121);stroke-width:17.9px;"/>
            </g>
            <g transform="matrix(1,2.53535e-05,2.61016e-05,0.985665,88.3609,0.283154)">
                <path d="M458.848,20.606L458.845,376.762" style="fill:none;stroke:rgb(89,101,121);stroke-width:17.9px;"/>
            </g>
            <g transform="matrix(1,2.53535e-05,2.61016e-05,0.985665,-90.8197,0.279542)">
                <path d="M547.209,20.605L548.025,465.8" style="fill:none;stroke:rgb(89,101,121);stroke-width:17.9px;"/>
            </g>
            <g transform="matrix(3.6,6.78276e-05,6.78276e-05,3.51051,6.38679,-154.93)">
                <path d="M0,50L125,175" style="fill:none;stroke:rgb(89,101,121);stroke-width:5.01px;"/>
            </g>
            <g transform="matrix(1,2.53535e-05,2.61016e-05,0.985665,-89.9886,614.619)">
                <path d="M547.208,154.164L636.389,65.124" style="fill:none;stroke:rgb(89,101,121);stroke-width:17.9px;"/>
            </g>
            <g transform="matrix(1,2.53535e-05,2.61016e-05,0.985665,-629.992,439.083)">
                <path d="M726.39,20.604L636.39,-68.434" style="fill:none;stroke:rgb(89,101,121);stroke-width:17.9px;"/>
            </g>
            <g transform="matrix(1,2.53535e-05,2.61016e-05,0.985665,-224.992,439.091)">
                <path d="M321.387,376.763L771.39,-68.435" style="fill:none;stroke:rgb(89,101,121);stroke-width:17.9px;"/>
            </g>
            <g transform="matrix(1,2.53535e-05,2.61016e-05,0.985665,-449.991,482.968)">
                <path d="M456.391,-112.953L456.386,599.36" style="fill:none;stroke:rgb(89,101,121);stroke-width:17.9px;"/>
            </g>
        </g>
        <g transform="matrix(-0.996945,-3.38813e-21,3.37778e-21,1,1091.94,0.0203328)">
            <g transform="matrix(3.6,6.78276e-05,6.78276e-05,3.51051,6.39018,20.595)">
                <path d="M50,200L50,100L0,50" style="fill:none;stroke:rgb(89,101,121);stroke-width:1.25px;"/>
            </g>
            <g transform="matrix(3.6,6.78276e-05,6.78276e-05,3.51051,6.39018,20.595)">
                <path d="M100,300L100,187.5L150,137.5" style="fill:none;stroke:rgb(89,101,121);stroke-width:1.25px;"/>
            </g>
            <g transform="matrix(3.6,6.78276e-05,6.78276e-05,3.51051,186.393,196.124)">
                <path d="M50,50L50,-50" style="fill:none;stroke:rgb(89,101,121);stroke-width:1.25px;"/>
            </g>
        </g>
    </g>
</svg>
